<?xml version="1.0" standalone="no"?>
<!DOCTYPE svg PUBLIC "-//W3C//DTD SVG 20010904//EN"
 "http://www.w3.org/TR/2001/REC-SVG-20010904/DTD/svg10.dtd">
<svg version="1.0" xmlns="http://www.w3.org/2000/svg"
 width="700.000000pt" height="700.000000pt" viewBox="0 0 700.000000 700.000000"
 preserveAspectRatio="xMidYMid meet">
<metadata>
Created by potrace 1.11, written by Peter Selinger 2001-2013
</metadata>
<g transform="translate(0.000000,700.000000) scale(0.100000,-0.100000)"
fill="#000000" stroke="none">
<path d="M1078 5073 l-1048 -3 0 -53 0 -54 172 -17 c95 -10 188 -20 205 -23
l33 -5 0 -1419 c0 -1128 -3 -1419 -12 -1419 -7 0 -94 -9 -193 -20 -99 -11
-186 -20 -192 -20 -9 0 -13 -18 -13 -54 l0 -53 1268 -5 c697 -3 1270 -2 1273
1 6 5 59 622 59 679 0 22 -3 23 -77 20 l-77 -3 -121 -265 -121 -265 -174 -6
c-96 -4 -359 -8 -585 -9 l-410 -3 -3 702 -2 701 457 0 458 0 70 -180 70 -180
72 0 73 0 0 440 0 441 -71 -3 -71 -3 -72 -170 -72 -170 -457 -3 -457 -2 0 636
0 635 418 -6 c229 -4 462 -10 517 -14 l99 -6 91 -247 90 -248 78 0 77 0 0 340
0 340 -152 -2 c-84 -2 -624 -4 -1200 -5z"/>
<path d="M2980 5020 c0 -47 3 -60 15 -60 24 0 380 -42 383 -45 4 -4 -88 -2716
-93 -2730 -1 -5 -89 -39 -194 -75 l-191 -65 0 -63 0 -62 483 2 482 3 0 59 0
59 -193 58 c-107 31 -195 59 -197 61 -3 3 83 2240 87 2273 2 11 225 -482 497
-1095 272 -613 525 -1182 562 -1265 l67 -150 63 -3 c35 -2 91 -1 125 3 l61 6
22 52 c28 64 620 1669 633 1716 14 48 277 761 288 780 8 14 9 14 10 1 0 -8 27
-550 60 -1204 34 -654 59 -1190 58 -1192 -3 -3 -327 -44 -348 -44 -6 0 -10
-24 -10 -55 l0 -55 660 0 660 0 0 55 c0 33 -4 55 -11 55 -24 0 -343 41 -347
44 -7 8 -106 2825 -100 2832 4 3 94 17 200 29 106 13 194 24 196 24 1 1 2 24
2 51 l0 50 -503 0 -502 0 -187 -502 c-103 -277 -310 -833 -460 -1236 -150
-404 -274 -730 -276 -725 -1 4 -240 562 -530 1238 l-528 1230 -472 3 -472 2 0
-60z"/>
</g>
</svg>
